<svg width="18" height="16" viewBox="0 0 18 16" fill="none" xmlns="http://www.w3.org/2000/svg">
<path d="M9.00033 12.5833C10.042 12.5833 10.9275 12.2189 11.657 11.49C12.3859 10.7606 12.7503 9.875 12.7503 8.83333C12.7503 7.79167 12.3859 6.90611 11.657 6.17667C10.9275 5.44778 10.042 5.08333 9.00033 5.08333C7.95866 5.08333 7.0731 5.44778 6.34366 6.17667C5.61477 6.90611 5.25033 7.79167 5.25033 8.83333C5.25033 9.875 5.61477 10.7606 6.34366 11.49C7.0731 12.2189 7.95866 12.5833 9.00033 12.5833ZM9.00033 11.75L8.08366 9.75L6.08366 8.83333L8.08366 7.91667L9.00033 5.91667L9.91699 7.91667L11.917 8.83333L9.91699 9.75L9.00033 11.75ZM2.33366 15.5C1.87533 15.5 1.4831 15.3369 1.15699 15.0108C0.830326 14.6842 0.666992 14.2917 0.666992 13.8333V3.83333C0.666992 3.375 0.830326 2.98278 1.15699 2.65667C1.4831 2.33 1.87533 2.16667 2.33366 2.16667H4.95866L6.50033 0.5H11.5003L13.042 2.16667H15.667C16.1253 2.16667 16.5178 2.33 16.8445 2.65667C17.1706 2.98278 17.3337 3.375 17.3337 3.83333V13.8333C17.3337 14.2917 17.1706 14.6842 16.8445 15.0108C16.5178 15.3369 16.1253 15.5 15.667 15.5H2.33366ZM15.667 13.8333V3.83333H12.292L10.7712 2.16667H7.22949L5.70866 3.83333H2.33366V13.8333H15.667Z" fill="#656E72"/>
</svg>
