<svg width="24" height="24" viewBox="0 0 24 24" fill="none" xmlns="http://www.w3.org/2000/svg">
<path d="M7.74694 17.833L11.9469 13.633L16.1469 17.833L17.7803 16.1997L13.5803 11.9997L17.7803 7.79967L16.1469 6.16634L11.9469 10.3663L7.74694 6.16634L6.11361 7.79967L10.3136 11.9997L6.11361 16.1997L7.74694 17.833ZM11.9469 23.6663C10.3331 23.6663 8.81639 23.3599 7.39694 22.747C5.9775 22.1349 4.74277 21.3038 3.69277 20.2538C2.64277 19.2038 1.81172 17.9691 1.19961 16.5497C0.586718 15.1302 0.280273 13.6136 0.280273 11.9997C0.280273 10.3858 0.586718 8.86912 1.19961 7.44968C1.81172 6.03023 2.64277 4.79551 3.69277 3.74551C4.74277 2.69551 5.9775 1.86406 7.39694 1.25117C8.81639 0.639063 10.3331 0.333008 11.9469 0.333008C13.5608 0.333008 15.0775 0.639063 16.4969 1.25117C17.9164 1.86406 19.1511 2.69551 20.2011 3.74551C21.2511 4.79551 22.0822 6.03023 22.6943 7.44968C23.3072 8.86912 23.6136 10.3858 23.6136 11.9997C23.6136 13.6136 23.3072 15.1302 22.6943 16.5497C22.0822 17.9691 21.2511 19.2038 20.2011 20.2538C19.1511 21.3038 17.9164 22.1349 16.4969 22.747C15.0775 23.3599 13.5608 23.6663 11.9469 23.6663ZM11.9469 21.333C14.5331 21.333 16.7353 20.4242 18.5538 18.6065C20.3714 16.7881 21.2803 14.5858 21.2803 11.9997C21.2803 9.41356 20.3714 7.21129 18.5538 5.39284C16.7353 3.57517 14.5331 2.66634 11.9469 2.66634C9.36083 2.66634 7.15894 3.57517 5.34127 5.39284C3.52283 7.21129 2.61361 9.41356 2.61361 11.9997C2.61361 14.5858 3.52283 16.7881 5.34127 18.6065C7.15894 20.4242 9.36083 21.333 11.9469 21.333Z" fill="#021016"/>
</svg>
