<svg width="22" height="22" viewBox="0 0 22 22" fill="none" xmlns="http://www.w3.org/2000/svg">
<mask id="mask0_1_4853" style="mask-type:alpha" maskUnits="userSpaceOnUse" x="0" y="0" width="23" height="22">
<rect x="0.00012207" width="22" height="22" fill="#D9D9D9"/>
</mask>
<g mask="url(#mask0_1_4853)">
<path d="M16.4446 19H5.55568C5.1279 19 4.76157 18.8416 4.45668 18.5248C4.15231 18.2075 4.00012 17.8262 4.00012 17.381V7.66667C4.00012 7.22143 4.15231 6.84041 4.45668 6.52362C4.76157 6.20629 5.1279 6.04762 5.55568 6.04762H7.11123C7.11123 4.92778 7.49053 3.97308 8.24912 3.18352C9.0072 2.39451 9.9242 2 11.0001 2C12.076 2 12.9933 2.39451 13.7519 3.18352C14.51 3.97308 14.889 4.92778 14.889 6.04762H16.4446C16.8723 6.04762 17.2387 6.20629 17.5436 6.52362C17.8479 6.84041 18.0001 7.22143 18.0001 7.66667V17.381C18.0001 17.8262 17.8479 18.2075 17.5436 18.5248C17.2387 18.8416 16.8723 19 16.4446 19ZM8.66679 6.04762H13.3335C13.3335 5.37302 13.1066 4.7996 12.6529 4.32738C12.1992 3.85516 11.6483 3.61905 11.0001 3.61905C10.352 3.61905 9.80105 3.85516 9.34734 4.32738C8.89364 4.7996 8.66679 5.37302 8.66679 6.04762ZM16.4446 17.381V7.66667H5.55568V17.381H16.4446ZM11.0001 12.5238C12.076 12.5238 12.9933 12.129 13.7519 11.3395C14.51 10.5505 14.889 9.59603 14.889 8.47619H13.3335C13.3335 9.15079 13.1066 9.72421 12.6529 10.1964C12.1992 10.6687 11.6483 10.9048 11.0001 10.9048C10.352 10.9048 9.80105 10.6687 9.34734 10.1964C8.89364 9.72421 8.66679 9.15079 8.66679 8.47619H7.11123C7.11123 9.59603 7.49053 10.5505 8.24912 11.3395C9.0072 12.129 9.9242 12.5238 11.0001 12.5238Z" fill="#021016"/>
</g>
</svg>
