<svg width="22" height="22" viewBox="0 0 22 22" fill="none" xmlns="http://www.w3.org/2000/svg">
<mask id="mask0_1_4843" style="mask-type:alpha" maskUnits="userSpaceOnUse" x="0" y="0" width="22" height="22">
<rect width="22" height="22" fill="#D9D9D9"/>
</mask>
<g mask="url(#mask0_1_4843)">
<path d="M1.83398 17.4167V15.5833H11.0007V17.4167H1.83398ZM1.83398 12.8333V11H6.41732V12.8333H1.83398ZM1.83398 8.25V6.41667H6.41732V8.25H1.83398ZM18.884 17.4167L15.3548 13.8875C14.9882 14.1472 14.5873 14.3419 14.1522 14.4714C13.7164 14.6016 13.277 14.6667 12.834 14.6667C11.5659 14.6667 10.4852 14.2196 9.59173 13.3256C8.69768 12.4321 8.25065 11.3514 8.25065 10.0833C8.25065 8.81528 8.69768 7.73422 9.59173 6.84017C10.4852 5.94672 11.5659 5.5 12.834 5.5C14.102 5.5 15.1831 5.94672 16.0772 6.84017C16.9706 7.73422 17.4173 8.81528 17.4173 10.0833C17.4173 10.5264 17.3525 10.9658 17.223 11.4015C17.0928 11.8366 16.8979 12.2375 16.6382 12.6042L20.1673 16.1333L18.884 17.4167ZM12.834 12.8333C13.5979 12.8333 14.2472 12.566 14.7819 12.0312C15.3166 11.4965 15.584 10.8472 15.584 10.0833C15.584 9.31944 15.3166 8.67014 14.7819 8.13542C14.2472 7.60069 13.5979 7.33333 12.834 7.33333C12.0701 7.33333 11.4208 7.60069 10.8861 8.13542C10.3513 8.67014 10.084 9.31944 10.084 10.0833C10.084 10.8472 10.3513 11.4965 10.8861 12.0312C11.4208 12.566 12.0701 12.8333 12.834 12.8333Z" fill="#021016"/>
</g>
</svg>
