<svg width="80" height="80" viewBox="0 0 80 80" fill="none" xmlns="http://www.w3.org/2000/svg">
<path d="M34.0625 57.7082L62.0833 29.6873L57.7084 25.3123L34.0625 48.9582L22.1875 37.0832L17.8125 41.4582L34.0625 57.7082ZM40 79.5832C34.5139 79.5832 29.3584 78.5415 24.5334 76.4582C19.7056 74.3748 15.5209 71.5623 11.9792 68.0207C8.43752 64.479 5.62502 60.2943 3.54169 55.4665C1.45835 50.6415 0.416687 45.4859 0.416687 39.9998C0.416687 34.5137 1.45835 29.3568 3.54169 24.529C5.62502 19.704 8.43752 15.5207 11.9792 11.979C15.5209 8.43734 19.7056 5.62484 24.5334 3.5415C29.3584 1.45817 34.5139 0.416504 40 0.416504C45.4861 0.416504 50.6431 1.45817 55.4709 3.5415C60.2959 5.62484 64.4792 8.43734 68.0209 11.979C71.5625 15.5207 74.375 19.704 76.4584 24.529C78.5417 29.3568 79.5834 34.5137 79.5834 39.9998C79.5834 45.4859 78.5417 50.6415 76.4584 55.4665C74.375 60.2943 71.5625 64.479 68.0209 68.0207C64.4792 71.5623 60.2959 74.3748 55.4709 76.4582C50.6431 78.5415 45.4861 79.5832 40 79.5832ZM40 73.3332C49.2361 73.3332 57.1014 70.0873 63.5959 63.5957C70.0875 57.1012 73.3334 49.2359 73.3334 39.9998C73.3334 30.7637 70.0875 22.8984 63.5959 16.404C57.1014 9.91234 49.2361 6.6665 40 6.6665C30.7639 6.6665 22.9 9.91234 16.4084 16.404C9.91391 22.8984 6.66669 30.7637 6.66669 39.9998C6.66669 49.2359 9.91391 57.1012 16.4084 63.5957C22.9 70.0873 30.7639 73.3332 40 73.3332Z" fill="#079E28"/>
</svg>
