<svg width="22" height="22" viewBox="0 0 22 22" fill="none" xmlns="http://www.w3.org/2000/svg">
<path d="M17.416 8.24984L16.2702 5.729L13.7493 4.58317L16.2702 3.43734L17.416 0.916504L18.5618 3.43734L21.0827 4.58317L18.5618 5.729L17.416 8.24984ZM17.416 21.0832L16.2702 18.5623L13.7493 17.4165L16.2702 16.2707L17.416 13.7498L18.5618 16.2707L21.0827 17.4165L18.5618 18.5623L17.416 21.0832ZM8.24935 18.3332L5.95768 13.2915L0.916016 10.9998L5.95768 8.70817L8.24935 3.6665L10.541 8.70817L15.5827 10.9998L10.541 13.2915L8.24935 18.3332ZM8.24935 13.8873L9.16602 11.9165L11.1368 10.9998L9.16602 10.0832L8.24935 8.11234L7.33268 10.0832L5.36185 10.9998L7.33268 11.9165L8.24935 13.8873Z" fill="#021016"/>
</svg>
