<svg width="20" height="19" viewBox="0 0 20 19" fill="none" xmlns="http://www.w3.org/2000/svg">
<path d="M10 18.9999L8.55 17.6999C5.93333 15.3666 3.854 13.3372 2.312 11.6119C0.770666 9.88724 0 8.06657 0 6.1499C0 4.58324 0.525 3.2749 1.575 2.2249C2.625 1.1749 3.93333 0.649902 5.5 0.649902C6.38333 0.649902 7.21667 0.837235 8 1.2119C8.78333 1.58724 9.45 2.0999 10 2.7499C10.55 2.0999 11.2167 1.58724 12 1.2119C12.7833 0.837235 13.6167 0.649902 14.5 0.649902C16.0667 0.649902 17.375 1.1749 18.425 2.2249C19.475 3.2749 20 4.58324 20 6.1499C20 8.06657 19.2293 9.88724 17.688 11.6119C16.146 13.3372 14.0667 15.3666 11.45 17.6999L10 18.9999ZM10 16.2999C12.3833 14.1332 14.3127 12.2666 15.788 10.6999C17.2627 9.13323 18 7.61657 18 6.1499C18 5.1499 17.6667 4.31657 17 3.6499C16.3333 2.98324 15.5 2.6499 14.5 2.6499C13.7167 2.6499 12.9917 2.87057 12.325 3.3119C11.6583 3.7539 11.2 4.31657 10.95 4.9999H9.05C8.8 4.31657 8.34167 3.7539 7.675 3.3119C7.00833 2.87057 6.28333 2.6499 5.5 2.6499C4.5 2.6499 3.66667 2.98324 3 3.6499C2.33333 4.31657 2 5.1499 2 6.1499C2 7.61657 2.73767 9.13323 4.213 10.6999C5.68767 12.2666 7.61667 14.1332 10 16.2999Z" fill="#021016"/>
</svg>
