<svg width="150" height="24" viewBox="0 0 150 24" fill="none" xmlns="http://www.w3.org/2000/svg">
<path d="M13.8917 8.18234V13.2359H10.7523V9.81732L4.62207 13.0084V23.9997H10.7523V18.4679H13.8917V23.9997H20.0206V4.99121L13.8917 8.18234Z" fill="#F04930"/>
<path d="M27.5121 8.18234V13.2359H30.6515V9.81732L36.7804 13.0084V23.9997H30.6515V18.4679H27.5121V23.9997H21.3818V4.99121L27.5121 8.18234Z" fill="#F04930"/>
<path d="M36.78 8.3145V3.51812H30.6511V5.14406L20.7016 0L10.7521 5.14406V3.51812H4.6219V8.3145L0 10.7043L0.802628 12.6378L20.7016 2.27734L40.5993 12.6378L41.4019 10.7043L36.78 8.3145Z" fill="#F04930"/>
<path d="M57.2387 11.2844H49.6167V5.01221H47.8223V18.9758H49.6167V12.985H57.2387V18.9758H59.0331V5.01221H57.2387V11.2844Z" fill="#021016"/>
<path d="M68.4129 4.80394C63.5517 4.80394 61.374 8.40494 61.374 11.9733C61.374 15.4561 63.5762 19.1998 68.4129 19.1998C73.2496 19.1998 75.4314 15.4765 75.4477 12.0141C75.4787 11.0449 75.3173 10.0792 74.9729 9.17275C74.6285 8.26629 74.108 7.43704 73.4413 6.73291C72.7753 6.09069 71.9869 5.58897 71.1231 5.25759C70.2592 4.92621 69.3376 4.77193 68.4129 4.80394ZM68.4129 17.4788C64.8201 17.4788 63.1684 14.6241 63.1521 11.9896C63.1221 11.2499 63.239 10.5116 63.4959 9.81721C63.7528 9.12286 64.1446 8.48624 64.6488 7.9441C65.149 7.46731 65.74 7.09598 66.3867 6.85217C67.0333 6.60837 67.7224 6.49707 68.4129 6.52492C72.0588 6.52492 73.6941 9.27359 73.6941 11.9937C73.6941 14.6364 72.0384 17.4788 68.4129 17.4788Z" fill="#021016"/>
<path d="M84.5259 12.3773L79.6893 5.01221H77.8867V18.9758H79.6811V8.16869L84.1671 14.9833H84.9256L89.3749 8.17685V18.9758H91.1489V5.01221H89.3055L84.5259 12.3773Z" fill="#021016"/>
<path d="M95.8306 12.7974H103.555V11.0968H95.8306V6.75357H103.93V5.01221H94.0566V18.9758H104.158V17.2181H95.8306V12.7974Z" fill="#021016"/>
<path d="M120.243 11.2844H112.621V5.01221H110.822V18.9758H112.621V12.985H120.243V18.9758H122.037V5.01221H120.243V11.2844Z" fill="#021016"/>
<path d="M134.038 13.5924C134.038 16.2432 132.138 17.4504 130.368 17.4504C128.598 17.4504 126.698 16.2269 126.698 13.5924V5.02832H124.924V13.5924C124.924 17.4177 127.738 19.1632 130.356 19.1632C133.06 19.1632 135.796 17.2505 135.796 13.5924V5.02832H134.022L134.038 13.5924Z" fill="#021016"/>
<path d="M147.647 11.6229C148.072 11.2895 148.417 10.8645 148.656 10.3794C148.894 9.89435 149.021 9.36176 149.025 8.8212C149.025 7.8117 148.624 6.84348 147.911 6.12927C147.197 5.41506 146.23 5.01329 145.22 5.01221H138.605V18.9758H145.538C146.405 18.9843 147.251 18.7081 147.946 18.1895C148.64 17.671 149.146 16.9388 149.384 16.1054C149.623 15.2719 149.581 14.3832 149.266 13.5757C148.95 12.7682 148.379 12.0864 147.639 11.6351L147.647 11.6229ZM140.4 6.6557H145.22C145.762 6.65857 146.283 6.86486 146.68 7.23371C147.077 7.60256 147.321 8.10706 147.364 8.64725C147.406 9.18744 147.244 9.72391 146.91 10.1504C146.576 10.5769 146.093 10.8623 145.559 10.95C145.45 10.9689 145.339 10.9798 145.228 10.9826H140.4V6.6557ZM145.546 17.2181H140.4V12.7321H145.546C146.14 12.7385 146.708 12.9773 147.128 13.3973C147.548 13.8174 147.787 14.3852 147.794 14.9792C147.791 15.5737 147.554 16.1432 147.133 16.5628C146.711 16.9825 146.141 17.2181 145.546 17.2181Z" fill="#021016"/>
</svg>
