<svg width="23" height="23" viewBox="0 0 23 23" fill="none" xmlns="http://www.w3.org/2000/svg">
<mask id="mask0_1_4859" style="mask-type:alpha" maskUnits="userSpaceOnUse" x="0" y="0" width="23" height="23">
<rect x="0.208069" y="0.425781" width="22" height="22" fill="#D9D9D9"/>
</mask>
<g mask="url(#mask0_1_4859)">
<path d="M11.2078 18.7594C10.7036 18.7594 10.2721 18.5801 9.91342 18.2214C9.55409 17.862 9.37442 17.4303 9.37442 16.9261C9.37442 16.4219 9.55409 15.9902 9.91342 15.6309C10.2721 15.2721 10.7036 15.0928 11.2078 15.0928C11.7119 15.0928 12.1437 15.2721 12.503 15.6309C12.8617 15.9902 13.0411 16.4219 13.0411 16.9261C13.0411 17.4303 12.8617 17.862 12.503 18.2214C12.1437 18.5801 11.7119 18.7594 11.2078 18.7594ZM11.2078 13.2594C10.7036 13.2594 10.2721 13.0798 9.91342 12.7204C9.55409 12.3617 9.37442 11.9303 9.37442 11.4261C9.37442 10.9219 9.55409 10.4902 9.91342 10.1309C10.2721 9.77213 10.7036 9.59277 11.2078 9.59277C11.7119 9.59277 12.1437 9.77213 12.503 10.1309C12.8617 10.4902 13.0411 10.9219 13.0411 11.4261C13.0411 11.9303 12.8617 12.3617 12.503 12.7204C12.1437 13.0798 11.7119 13.2594 11.2078 13.2594ZM11.2078 7.75944C10.7036 7.75944 10.2721 7.57977 9.91342 7.22044C9.55409 6.86172 9.37442 6.43027 9.37442 5.92611C9.37442 5.42194 9.55409 4.9905 9.91342 4.63177C10.2721 4.27244 10.7036 4.09277 11.2078 4.09277C11.7119 4.09277 12.1437 4.27244 12.503 4.63177C12.8617 4.9905 13.0411 5.42194 13.0411 5.92611C13.0411 6.43027 12.8617 6.86172 12.503 7.22044C12.1437 7.57977 11.7119 7.75944 11.2078 7.75944Z" fill="#021016"/>
</g>
</svg>
