<svg width="90" height="90" viewBox="0 0 90 90" fill="none" xmlns="http://www.w3.org/2000/svg">
<rect width="90" height="90" fill="white"/>
<g opacity="0.1">
<path d="M31.2038 37.0242V46.9208H25.0558V40.226L13.0508 46.4753V67.9998H25.0558V57.1667H31.2038V67.9998H43.2063V30.7749L31.2038 37.0242Z" fill="#F04930"/>
<path d="M57.8771 37.0242V46.9208H64.0251V40.226L76.0276 46.4753V67.9998H64.0251V57.1667H57.8771V67.9998H45.8721V30.7749L57.8771 37.0242Z" fill="#F04930"/>
<path d="M76.0275 37.2826V27.8897H64.025V31.0738L44.5406 21L25.0562 31.0738V27.8897H13.0512V37.2826L4 41.9626L5.57181 45.7491L44.5406 25.4598L83.5069 45.7491L85.0787 41.9626L76.0275 37.2826Z" fill="#F04930"/>
</g>
<path d="M58 69L56.6 67.55L60.15 64H28V62H60.15L56.6 58.45L58 57L64 63L58 69Z" fill="#021016"/>
<path opacity="0.9" d="M18.4004 27L15.3284 18.6H16.9724L19.3484 25.428L21.7364 18.6H23.3564L20.2844 27H18.4004ZM25.1471 20.124C24.8671 20.124 24.6351 20.04 24.4511 19.872C24.2751 19.704 24.1871 19.492 24.1871 19.236C24.1871 18.98 24.2751 18.772 24.4511 18.612C24.6351 18.444 24.8671 18.36 25.1471 18.36C25.4271 18.36 25.6551 18.444 25.8311 18.612C26.0151 18.772 26.1071 18.98 26.1071 19.236C26.1071 19.492 26.0151 19.704 25.8311 19.872C25.6551 20.04 25.4271 20.124 25.1471 20.124ZM24.3791 27V21.048H25.9151V27H24.3791ZM30.4103 27.144C29.8103 27.144 29.2783 27.016 28.8143 26.76C28.3503 26.504 27.9863 26.144 27.7223 25.68C27.4583 25.216 27.3263 24.68 27.3263 24.072C27.3263 23.456 27.4543 22.908 27.7103 22.428C27.9743 21.948 28.3343 21.576 28.7903 21.312C29.2543 21.04 29.7983 20.904 30.4223 20.904C31.0063 20.904 31.5223 21.032 31.9703 21.288C32.4183 21.544 32.7663 21.896 33.0143 22.344C33.2703 22.784 33.3983 23.276 33.3983 23.82C33.3983 23.908 33.3943 24 33.3863 24.096C33.3863 24.192 33.3823 24.292 33.3743 24.396H28.8503C28.8823 24.86 29.0423 25.224 29.3303 25.488C29.6263 25.752 29.9823 25.884 30.3983 25.884C30.7103 25.884 30.9703 25.816 31.1783 25.68C31.3943 25.536 31.5543 25.352 31.6583 25.128H33.2183C33.1063 25.504 32.9183 25.848 32.6543 26.16C32.3983 26.464 32.0783 26.704 31.6943 26.88C31.3183 27.056 30.8903 27.144 30.4103 27.144ZM30.4223 22.152C30.0463 22.152 29.7143 22.26 29.4263 22.476C29.1383 22.684 28.9543 23.004 28.8743 23.436H31.8383C31.8143 23.044 31.6703 22.732 31.4063 22.5C31.1423 22.268 30.8143 22.152 30.4223 22.152ZM35.6198 27L33.8798 21.048H35.4038L36.4358 25.332L37.6358 21.048H39.3398L40.5398 25.332L41.5838 21.048H43.1078L41.3558 27H39.7598L38.4878 22.548L37.2158 27H35.6198ZM46.9723 27V18.6H48.7963L51.4723 23.928L54.1123 18.6H55.9363V27H54.4003V21.204L52.0603 25.8H50.8483L48.5083 21.204V27H46.9723ZM60.386 27.144C59.81 27.144 59.29 27.012 58.826 26.748C58.37 26.484 58.006 26.12 57.734 25.656C57.47 25.184 57.338 24.64 57.338 24.024C57.338 23.408 57.474 22.868 57.746 22.404C58.018 21.932 58.382 21.564 58.838 21.3C59.302 21.036 59.822 20.904 60.398 20.904C60.966 20.904 61.478 21.036 61.934 21.3C62.398 21.564 62.762 21.932 63.026 22.404C63.298 22.868 63.434 23.408 63.434 24.024C63.434 24.64 63.298 25.184 63.026 25.656C62.762 26.12 62.398 26.484 61.934 26.748C61.47 27.012 60.954 27.144 60.386 27.144ZM60.386 25.812C60.786 25.812 61.134 25.664 61.43 25.368C61.726 25.064 61.874 24.616 61.874 24.024C61.874 23.432 61.726 22.988 61.43 22.692C61.134 22.388 60.79 22.236 60.398 22.236C59.99 22.236 59.638 22.388 59.342 22.692C59.054 22.988 58.91 23.432 58.91 24.024C58.91 24.616 59.054 25.064 59.342 25.368C59.638 25.664 59.986 25.812 60.386 25.812ZM64.8073 27V21.048H66.1753L66.3193 22.164C66.5353 21.78 66.8273 21.476 67.1953 21.252C67.5713 21.02 68.0113 20.904 68.5153 20.904V22.524H68.0833C67.7473 22.524 67.4473 22.576 67.1833 22.68C66.9193 22.784 66.7113 22.964 66.5593 23.22C66.4153 23.476 66.3433 23.832 66.3433 24.288V27H64.8073ZM72.3517 27.144C71.7517 27.144 71.2197 27.016 70.7557 26.76C70.2917 26.504 69.9277 26.144 69.6637 25.68C69.3997 25.216 69.2677 24.68 69.2677 24.072C69.2677 23.456 69.3957 22.908 69.6517 22.428C69.9157 21.948 70.2757 21.576 70.7317 21.312C71.1957 21.04 71.7397 20.904 72.3637 20.904C72.9477 20.904 73.4637 21.032 73.9117 21.288C74.3597 21.544 74.7077 21.896 74.9557 22.344C75.2117 22.784 75.3397 23.276 75.3397 23.82C75.3397 23.908 75.3357 24 75.3277 24.096C75.3277 24.192 75.3237 24.292 75.3157 24.396H70.7917C70.8237 24.86 70.9837 25.224 71.2717 25.488C71.5677 25.752 71.9237 25.884 72.3397 25.884C72.6517 25.884 72.9117 25.816 73.1197 25.68C73.3357 25.536 73.4957 25.352 73.5997 25.128H75.1597C75.0477 25.504 74.8597 25.848 74.5957 26.16C74.3397 26.464 74.0197 26.704 73.6357 26.88C73.2597 27.056 72.8317 27.144 72.3517 27.144ZM72.3637 22.152C71.9877 22.152 71.6557 22.26 71.3677 22.476C71.0797 22.684 70.8957 23.004 70.8157 23.436H73.7797C73.7557 23.044 73.6117 22.732 73.3477 22.5C73.0837 22.268 72.7557 22.152 72.3637 22.152ZM26.0836 43V34.6H27.6196V38.092H31.3876V34.6H32.9236V43H31.3876V39.34H27.6196V43H26.0836ZM37.3762 43.144C36.8002 43.144 36.2802 43.012 35.8162 42.748C35.3602 42.484 34.9962 42.12 34.7242 41.656C34.4602 41.184 34.3282 40.64 34.3282 40.024C34.3282 39.408 34.4642 38.868 34.7362 38.404C35.0082 37.932 35.3722 37.564 35.8282 37.3C36.2922 37.036 36.8122 36.904 37.3882 36.904C37.9562 36.904 38.4682 37.036 38.9242 37.3C39.3882 37.564 39.7522 37.932 40.0162 38.404C40.2882 38.868 40.4242 39.408 40.4242 40.024C40.4242 40.64 40.2882 41.184 40.0162 41.656C39.7522 42.12 39.3882 42.484 38.9242 42.748C38.4602 43.012 37.9442 43.144 37.3762 43.144ZM37.3762 41.812C37.7762 41.812 38.1242 41.664 38.4202 41.368C38.7162 41.064 38.8642 40.616 38.8642 40.024C38.8642 39.432 38.7162 38.988 38.4202 38.692C38.1242 38.388 37.7802 38.236 37.3882 38.236C36.9802 38.236 36.6282 38.388 36.3322 38.692C36.0442 38.988 35.9002 39.432 35.9002 40.024C35.9002 40.616 36.0442 41.064 36.3322 41.368C36.6282 41.664 36.9762 41.812 37.3762 41.812ZM41.7976 43V37.048H43.1536L43.2856 37.852C43.4776 37.564 43.7296 37.336 44.0416 37.168C44.3616 36.992 44.7296 36.904 45.1456 36.904C46.0656 36.904 46.7176 37.26 47.1016 37.972C47.3176 37.644 47.6056 37.384 47.9656 37.192C48.3336 37 48.7336 36.904 49.1656 36.904C49.9416 36.904 50.5376 37.136 50.9536 37.6C51.3696 38.064 51.5776 38.744 51.5776 39.64V43H50.0416V39.784C50.0416 39.272 49.9416 38.88 49.7416 38.608C49.5496 38.336 49.2496 38.2 48.8416 38.2C48.4256 38.2 48.0896 38.352 47.8336 38.656C47.5856 38.96 47.4616 39.384 47.4616 39.928V43H45.9256V39.784C45.9256 39.272 45.8256 38.88 45.6256 38.608C45.4256 38.336 45.1176 38.2 44.7016 38.2C44.2936 38.2 43.9616 38.352 43.7056 38.656C43.4576 38.96 43.3336 39.384 43.3336 39.928V43H41.7976ZM55.9279 43.144C55.3279 43.144 54.7959 43.016 54.3319 42.76C53.8679 42.504 53.5039 42.144 53.2399 41.68C52.9759 41.216 52.8439 40.68 52.8439 40.072C52.8439 39.456 52.9719 38.908 53.2279 38.428C53.4919 37.948 53.8519 37.576 54.3079 37.312C54.7719 37.04 55.3159 36.904 55.9399 36.904C56.5239 36.904 57.0399 37.032 57.4879 37.288C57.9359 37.544 58.2839 37.896 58.5319 38.344C58.7879 38.784 58.9159 39.276 58.9159 39.82C58.9159 39.908 58.9119 40 58.9039 40.096C58.9039 40.192 58.8999 40.292 58.8919 40.396H54.3679C54.3999 40.86 54.5599 41.224 54.8479 41.488C55.1439 41.752 55.4999 41.884 55.9159 41.884C56.2279 41.884 56.4879 41.816 56.6959 41.68C56.9119 41.536 57.0719 41.352 57.1759 41.128H58.7359C58.6239 41.504 58.4359 41.848 58.1719 42.16C57.9159 42.464 57.5959 42.704 57.2119 42.88C56.8359 43.056 56.4079 43.144 55.9279 43.144ZM55.9399 38.152C55.5639 38.152 55.2319 38.26 54.9439 38.476C54.6559 38.684 54.4719 39.004 54.3919 39.436H57.3559C57.3319 39.044 57.1879 38.732 56.9239 38.5C56.6599 38.268 56.3319 38.152 55.9399 38.152ZM62.6677 43.144C62.1397 43.144 61.6757 43.06 61.2757 42.892C60.8757 42.716 60.5557 42.476 60.3157 42.172C60.0757 41.868 59.9317 41.516 59.8837 41.116H61.4317C61.4797 41.348 61.6077 41.548 61.8157 41.716C62.0317 41.876 62.3077 41.956 62.6437 41.956C62.9797 41.956 63.2237 41.888 63.3757 41.752C63.5357 41.616 63.6157 41.46 63.6157 41.284C63.6157 41.028 63.5037 40.856 63.2797 40.768C63.0557 40.672 62.7437 40.58 62.3437 40.492C62.0877 40.436 61.8277 40.368 61.5637 40.288C61.2997 40.208 61.0557 40.108 60.8317 39.988C60.6157 39.86 60.4397 39.7 60.3037 39.508C60.1677 39.308 60.0997 39.064 60.0997 38.776C60.0997 38.248 60.3077 37.804 60.7237 37.444C61.1477 37.084 61.7397 36.904 62.4997 36.904C63.2037 36.904 63.7637 37.068 64.1797 37.396C64.6037 37.724 64.8557 38.176 64.9357 38.752H63.4837C63.3957 38.312 63.0637 38.092 62.4877 38.092C62.1997 38.092 61.9757 38.148 61.8157 38.26C61.6637 38.372 61.5877 38.512 61.5877 38.68C61.5877 38.856 61.7037 38.996 61.9357 39.1C62.1677 39.204 62.4757 39.3 62.8597 39.388C63.2757 39.484 63.6557 39.592 63.9997 39.712C64.3517 39.824 64.6317 39.996 64.8397 40.228C65.0477 40.452 65.1517 40.776 65.1517 41.2C65.1597 41.568 65.0637 41.9 64.8637 42.196C64.6637 42.492 64.3757 42.724 63.9997 42.892C63.6237 43.06 63.1797 43.144 62.6677 43.144Z" fill="#021016"/>
</svg>
